<?xml version="1.0" encoding="utf-8"?>
<svg viewBox="48.236 29.252 406.649 406.793" xmlns="http://www.w3.org/2000/svg">
  <g style="" transform="matrix(0.940144, 0, 0, 0.923276, 14.43346, 33.455334)">
    <path d="M 251.56 29.252 C 139.275 29.252 48.236 120.292 48.236 232.577 C 48.236 322.425 113.319 341.101 260.948 336.863 C 394.692 333.024 454.885 322.376 454.885 232.577 C 454.885 120.292 363.846 29.252 251.56 29.252 Z" style="fill: rgb(255, 255, 255);"/>
    <path d="M 251.56 127.879 C 139.275 127.879 48.236 218.919 48.236 331.204 C 48.236 421.052 113.319 439.728 260.948 435.49 C 394.692 431.651 454.885 421.003 454.885 331.204 C 454.885 218.919 363.846 127.879 251.56 127.879 Z" style="fill: rgb(255, 255, 255);" transform="matrix(-1, 0, 0, -1, 503.121017, 563.923401)"/>
  </g>
  <path d="M 251.56 29.252 C 139.275 29.252 48.236 120.292 48.236 232.577 C 48.236 322.425 106.488 398.623 187.29 425.502 C 197.453 427.363 201.164 421.085 201.164 415.722 C 201.164 410.882 200.978 394.85 200.879 377.873 C 144.339 390.159 132.388 353.897 132.388 353.897 C 123.131 330.417 109.814 324.162 109.814 324.162 C 91.336 311.555 111.216 311.802 111.216 311.802 C 131.629 313.217 142.378 332.751 142.378 332.751 C 160.521 363.824 189.982 354.84 201.549 349.628 C 203.396 336.522 208.658 327.537 214.455 322.475 C 169.32 317.338 121.839 299.889 121.839 221.979 C 121.839 199.765 129.77 181.647 142.75 167.413 C 140.679 162.25 133.679 141.562 144.761 113.579 C 144.761 113.579 161.813 108.119 200.679 134.427 C 216.886 129.898 234.273 127.664 251.56 127.589 C 268.835 127.664 286.233 129.923 302.465 134.452 C 341.259 108.119 358.335 113.604 358.335 113.604 C 369.455 141.613 362.456 162.275 360.371 167.413 C 373.401 181.647 381.269 199.766 381.269 221.979 C 381.269 300.087 333.714 317.287 288.417 322.326 C 295.74 328.631 302.218 340.991 302.218 359.952 C 302.218 387.13 301.945 409.046 301.945 415.747 C 301.945 421.159 305.642 427.487 315.943 425.502 C 396.682 398.572 454.885 322.376 454.885 232.577 C 454.885 120.292 363.846 29.252 251.56 29.252 Z" style="fill: rgb(111, 66, 193);"/>
</svg>