<svg viewBox="48.236 29.252 406.649 406.793" xmlns="http://www.w3.org/2000/svg"><g fill="#fff"><path d="M250.936 60.463c-105.564 0-191.154 84.055-191.154 187.725 0 82.955 61.188 100.198 199.98 96.285 125.739-3.545 182.329-13.376 182.329-96.285 0-103.67-85.59-187.725-191.155-187.725z"/><path d="M250.937 436.045c105.564 0 191.154-84.055 191.154-187.725 0-82.955-61.188-100.198-199.98-96.285-125.739 3.544-182.329 13.375-182.329 96.285 0 103.67 85.59 187.725 191.155 187.725z"/></g><path d="M251.56 29.252c-112.285 0-203.324 91.04-203.324 203.325 0 89.848 58.252 166.046 139.054 192.925 10.163 1.861 13.874-4.417 13.874-9.78 0-4.84-.186-20.872-.285-37.849-56.54 12.286-68.491-23.976-68.491-23.976-9.257-23.48-22.574-29.735-22.574-29.735-18.478-12.607 1.402-12.36 1.402-12.36 20.413 1.415 31.162 20.949 31.162 20.949 18.143 31.073 47.604 22.089 59.171 16.877 1.847-13.106 7.109-22.091 12.906-27.153-45.135-5.137-92.616-22.586-92.616-100.496 0-22.214 7.931-40.332 20.911-54.566-2.071-5.163-9.071-25.851 2.011-53.834 0 0 17.052-5.46 55.918 20.848 16.207-4.529 33.594-6.763 50.881-6.838 17.275.075 34.673 2.334 50.905 6.863 38.794-26.333 55.87-20.848 55.87-20.848 11.12 28.009 4.121 48.671 2.036 53.809 13.03 14.234 20.898 32.353 20.898 54.566 0 78.108-47.555 95.308-92.852 100.347 7.323 6.305 13.801 18.665 13.801 37.626 0 27.178-.273 49.094-.273 55.795 0 5.412 3.697 11.74 13.998 9.755 80.739-26.93 138.942-103.126 138.942-192.925 0-112.285-91.039-203.325-203.325-203.325z" fill="#6f42c1"/></svg>