<svg viewBox="2.371 1.874 475.154 475.154" xmlns="http://www.w3.org/2000/svg"><circle cx="239.948" cy="239.451" r="237.577" paint-order="fill" fill="#e1306b"/><g><path clip-rule="evenodd" d="M140.256 107.686h197.017c18.69 0 34.002 15.298 34.002 34.015v197.004c0 18.717-15.311 34.015-34.002 34.015H140.256c-18.704 0-34.015-15.298-34.015-34.015V141.7c0-18.717 15.311-34.015 34.015-34.015zm159.068 29.448c-6.573 0-11.932 5.372-11.932 11.933v28.563c0 6.56 5.359 11.92 11.932 11.92h29.963c6.547 0 11.906-5.36 11.906-11.92v-28.563c0-6.56-5.359-11.933-11.906-11.933h-29.963zm42.001 82.63h-23.337a77.196 77.196 0 013.406 22.756c0 44.086-36.893 79.817-82.365 79.817-45.5 0-82.405-35.73-82.405-79.817 0-7.92 1.2-15.55 3.405-22.757h-24.34v111.96c0 5.794 4.726 10.546 10.533 10.546h184.57c5.781 0 10.52-4.739 10.52-10.547V219.763h.013zM239.03 188.057c-29.422 0-53.247 23.086-53.247 51.57 0 28.499 23.825 51.598 53.247 51.598 29.382 0 53.207-23.1 53.207-51.597 0-28.485-23.825-51.57-53.207-51.57z" fill-rule="evenodd" fill="#fff"/></g></svg>