<svg viewBox="0 0 500 500" xmlns="http://www.w3.org/2000/svg"><path d="M250.583 23.243c-126.04 0-228.215 102.174-228.215 228.214 0 126.039 102.175 228.214 228.215 228.214s228.215-102.175 228.215-228.214c0-126.04-102.175-228.214-228.215-228.214z" fill="#fff"/><path d="M250.583 1.098C113.118 1.098 1.68 112.535 1.68 250c0 137.465 111.437 248.902 248.902 248.902 137.465 0 248.902-111.437 248.902-248.902 0-137.465-111.437-248.902-248.902-248.902zm-68.545 345.704h-53.822V184.89h53.822v161.912zm-26.901-184.008h-.363c-18.058 0-29.755-12.445-29.755-27.992 0-15.886 12.052-27.969 30.465-27.969 18.42 0 29.747 12.083 30.102 27.969 0 15.547-11.68 27.992-30.45 27.992zm221.01 184.011h-53.822v-86.627c0-21.759-7.792-36.613-27.271-36.613-14.875 0-23.725 10.008-27.624 19.687-1.42 3.464-1.783 8.276-1.783 13.125v90.425h-53.83s.718-146.718 0-161.912h53.827v22.948c7.149-11.015 19.927-26.754 48.518-26.754 35.43 0 61.983 23.138 61.986 72.871v92.85z" fill="#2867b2"/></svg>