<?xml version="1.0" encoding="utf-8"?>
<svg viewBox="0 0 500 500" xmlns="http://www.w3.org/2000/svg">
  <g transform="matrix(1, 0, 0, 1, -5.417248, -5.999987)">
    <path d="M 256 29.243 C 129.96 29.243 27.785 131.417 27.785 257.457 C 27.785 383.496 129.96 485.671 256 485.671 C 382.04 485.671 484.215 383.496 484.215 257.457 C 484.215 131.417 382.04 29.243 256 29.243 Z" style="fill: rgb(255, 255, 255);"/>
  </g>
  <g transform="matrix(1, 0, 0, 1, -5.417248, -5.999987)">
    <path d="M256,7.098C118.535,7.098,7.098,118.535,7.098,256c0,137.465,111.437,248.902,248.902,248.902   c137.465,0,248.902-111.437,248.902-248.902C504.902,118.535,393.465,7.098,256,7.098z M187.455,352.802h-53.822V190.89h53.822   V352.802z M160.554,168.794h-0.363c-18.058,0-29.755-12.445-29.755-27.992c0-15.886,12.052-27.969,30.465-27.969   c18.421,0,29.747,12.083,30.102,27.969C191.004,156.349,179.323,168.794,160.554,168.794z M381.564,352.805h-53.822v-86.627   c0-21.759-7.792-36.613-27.271-36.613c-14.875,0-23.725,10.008-27.624,19.687c-1.42,3.464-1.783,8.276-1.783,13.125v90.425h-53.83   c0,0,0.718-146.718,0-161.912h53.827v22.948c7.149-11.015,19.927-26.754,48.518-26.754c35.43,0,61.983,23.138,61.986,72.871   V352.805z" style="fill: rgb(40, 103, 178);"/>
  </g>
</svg>